P3
32 16
255
255 255 255   255 255 255   255 255 255   255 255 255   255 255 255
255 255 255   255 255 255   255 255 255   255 255 255   255 255 255
255 165   0   255 165   0   255 165   0   255 165   0   255 165   0
255 165   0   255 165   0   255 165   0   255 165   0   255 165   0
255 165   0   255 165   0   255 165   0   255 165   0   255 165   0
255 165   0   255 165   0   255 165   0   255 165   0   255 165   0
255 165   0   255 165   0
255 255 255   255 255 255   255 255 255   255 255 255   255 255 255
255 255 255   255 255 255   255 255 255   255 255 255   255 255 255
255 165   0   255 165   0   255 165   0   255 165   0   255 165   0
255 165   0   255 165   0   255 165   0   255 165   0   255 165   0
255 165   0   255 165   0   255 165   0   255 165   0   255 165   0
255 165   0   255 165   0   255 165   0   255 165   0   255 165   0
255 165   0   255 165   0
255 255 255   255 255 255   255 255 255   255 255 255   255 255 255
255 255 255   255 255 255   255 255 255   255 255 255   255 255 255
255 165   0   255 165   0   255 165   0   255 165   0   255 165   0
255 165   0   255 165   0   255 165   0   255 165   0   255 165   0
255 165   0   255 165   0   255 165   0   255 165   0   255 165   0
255 165   0   255 165   0   255 165   0   255 165   0   255 165   0
255 165   0   255 165   0
255 255 255   255 255 255   255 255 255   255 255 255   255 255 255
255 255 255   255 255 255   255 255 255   255 255 255   255 255 255
255 165   0   255 165   0   255 165   0   255 165   0   255 165   0
255 165   0   255 165   0   255 165   0   255 165   0   255 165   0
255 165   0   255 165   0   255 165   0   255 165   0   255 165   0
255 165   0   255 165   0   255 165   0   255 165   0   255 165   0
255 165   0   255 165   0
255 255 255   255 255 255   255 255 255   255 255 255   255 255 255
255 255 255   255 255 255   255 255 255   255 255 255   255 255 255
255 165   0   255 165   0   255 165   0   255 165   0   255 165   0
255 165   0   255 165   0   255 165   0   255 165   0   255 165   0
255 165   0   255 165   0   255 165   0   255 165   0   255 165   0
255 165   0   255 165   0   255 165   0   255 165   0   255 165   0
255 165   0   255 165   0
255 255 255   255 255 255   255 255 255   255 255 255   255 255 255
255 255 255   255 255 255   255 255 255   255 255 255   255 255 255
255 165   0   255 165   0   255 165   0   255 165   0   255 165   0
255 165   0   255 165   0   255 165   0   255 165   0   255 165   0
255 165   0   255 165   0   255 165   0   255 165   0   255 165   0
255 165   0   255 165   0   255 165   0   255 165   0   255 165   0
255 165   0   255 165   0
255 255 255   255 255 255   255 255 255   255 255 255   255 255 255
255 255 255   255 255 255   255 255 255   255 255 255   255 255 255
255 165   0   255 165   0   255 165   0   255 165   0   255 165   0
255 165   0   255 165   0   255 165   0   255 165   0   255 165   0
255 165   0   255 165   0   255 165   0   255 165   0   255 165   0
255 165   0   255 165   0   255 165   0   255 165   0   255 165   0
255 165   0   255 165   0
255 255 255   255 255 255   255 255 255   255 255 255   255 255 255
255 255 255   255 255 255   255 255 255   255 255 255   255 255 255
255 165   0   255 165   0   255 165   0   255 165   0   255 165   0
255 165   0   255 165   0   255 165   0   255 165   0   255 165   0
255 165   0   255 165   0   255 165   0   255 165   0   255 165   0
255 165   0   255 165   0   255 165   0   255 165   0   255 165   0
255 165   0   255 165   0
 46 139  87    46 139  87    46 139  87    46 139  87    46 139  87
 46 139  87    46 139  87    46 139  87    46 139  87    46 139  87
 46 139  87    46 139  87    46 139  87    46 139  87    46 139  87
 46 139  87   255 255 255   255 255 255   255 255 255   255 255 255
255 255 255   255 255 255   255 255 255   255 255 255   255 255 255
255 255 255   255 255 255   255 255 255   255 255 255   255 255 255
255 255 255   255 255 255
255 192 203   255 192 203   255 192 203    46 139  87    46 139  87
 46 139  87    46 139  87    46 139  87    46 139  87    46 139  87
 46 139  87    46 139  87    46 139  87    46 139  87    46 139  87
 46 139  87   255 255 255   255 255 255   255 255 255   255 255 255
255 255 255   255 255 255   255 255 255   255 255 255   255 255 255
255 255 255   255 255 255   255 255 255   255 255 255   255 255 255
255 255 255   255 255 255
 46 139  87    46 139  87    46 139  87   255 192 203   255 192 203
 46 139  87    46 139  87    46 139  87    46 139  87    46 139  87
 46 139  87    46 139  87    46 139  87    46 139  87    46 139  87
 46 139  87   255 255 255   255 255 255   255 255 255   255 255 255
255 255 255   255 255 255   255 255 255   255 255 255   255 255 255
255 255 255   255 255 255   255 255 255   255 255 255   255 255 255
255 255 255   255 255 255
 46 139  87    46 139  87    46 139  87    46 139  87    46 139  87
255 192 203   255 192 203   255 192 203    46 139  87    46 139  87
 46 139  87    46 139  87    46 139  87    46 139  87    46 139  87
 46 139  87   255 255 255   255 255 255   255 255 255   255 255 255
255 255 255   255 255 255   255 255 255   255 255 255   255 255 255
255 255 255   255 255 255   255 255 255   255 255 255   255 255 255
255 255 255   255 255 255
 46 139  87    46 139  87    46 139  87    46 139  87    46 139  87
 46 139  87    46 139  87    46 139  87   255 192 203   255 192 203
 46 139  87    46 139  87    46 139  87    46 139  87    46 139  87
 46 139  87   255 255 255   255 255 255   255 255 255   255 255 255
255 255 255   255 255 255   255 255 255   255 255 255   255 255 255
255 255 255   255 255 255   255 255 255   255 255 255   255 255 255
255 255 255   255 255 255
 46 139  87    46 139  87    46 139  87    46 139  87    46 139  87
 46 139  87    46 139  87    46 139  87    46 139  87    46 139  87
255 192 203   255 192 203   255 192 203    46 139  87    46 139  87
 46 139  87   255 255 255   255 255 255   255 255 255   255 255 255
255 255 255   255 255 255   255 255 255   255 255 255   255 255 255
255 255 255   255 255 255   255 255 255   255 255 255   255 255 255
255 255 255   255 255 255
 46 139  87    46 139  87    46 139  87    46 139  87    46 139  87
 46 139  87    46 139  87    46 139  87    46 139  87    46 139  87
 46 139  87    46 139  87    46 139  87   255 192 203   255 192 203
 46 139  87   255 255 255   255 255 255   255 255 255   255 255 255
255 255 255   255 255 255   255 255 255   255 255 255   255 255 255
255 255 255   255 255 255   255 255 255   255 255 255   255 255 255
255 255 255   255 255 255
 46 139  87    46 139  87    46 139  87    46 139  87    46 139  87
 46 139  87    46 139  87    46 139  87    46 139  87    46 139  87
 46 139  87    46 139  87    46 139  87    46 139  87    46 139  87
255 192 203   255 255 255   255 255 255   255 255 255   255 255 255
255 255 255   255 255 255   255 255 255   255 255 255   255 255 255
255 255 255   255 255 255   255 255 255   255 255 255   255 255 255
255 255 255   255 255 255
