<?xml version="1.0" encoding="UTF-8"?>
<svg xmlns="http://www.w3.org/2000/svg" xmlns:xlink="http://www.w3.org/1999/xlink" width="500pt" height="500pt" viewBox="0 0 500 500" version="1.1">
<g id="surface1">
<path style="fill:none;stroke-width:2;stroke-linecap:butt;stroke-linejoin:miter;stroke:rgb(0%,0%,0%);stroke-opacity:1;stroke-miterlimit:10;" d="M 250 0 L 500 500 L 0 500 Z M 250 0 " transform="matrix(0.0625,0,0,0.0625,234.375,0)"/>
<path style="fill:none;stroke-width:2;stroke-linecap:butt;stroke-linejoin:miter;stroke:rgb(0%,0%,0%);stroke-opacity:1;stroke-miterlimit:10;" d="M 250 0 L 500 500 L 0 500 Z M 250 0 " transform="matrix(0.0625,0,0,0.0625,218.75,31.25)"/>
<path style="fill:none;stroke-width:2;stroke-linecap:butt;stroke-linejoin:miter;stroke:rgb(0%,0%,0%);stroke-opacity:1;stroke-miterlimit:10;" d="M 250 0 L 500 500 L 0 500 Z M 250 0 " transform="matrix(0.0625,0,0,0.0625,250,31.25)"/>
<path style="fill:none;stroke-width:2;stroke-linecap:butt;stroke-linejoin:miter;stroke:rgb(0%,0%,0%);stroke-opacity:1;stroke-miterlimit:10;" d="M 250 0 L 500 500 L 0 500 Z M 250 0 " transform="matrix(0.0625,0,0,0.0625,203.125,62.5)"/>
<path style="fill:none;stroke-width:2;stroke-linecap:butt;stroke-linejoin:miter;stroke:rgb(0%,0%,0%);stroke-opacity:1;stroke-miterlimit:10;" d="M 250 0 L 500 500 L 0 500 Z M 250 0 " transform="matrix(0.0625,0,0,0.0625,187.5,93.75)"/>
<path style="fill:none;stroke-width:2;stroke-linecap:butt;stroke-linejoin:miter;stroke:rgb(0%,0%,0%);stroke-opacity:1;stroke-miterlimit:10;" d="M 250 0 L 500 500 L 0 500 Z M 250 0 " transform="matrix(0.0625,0,0,0.0625,218.75,93.75)"/>
<path style="fill:none;stroke-width:2;stroke-linecap:butt;stroke-linejoin:miter;stroke:rgb(0%,0%,0%);stroke-opacity:1;stroke-miterlimit:10;" d="M 250 0 L 500 500 L 0 500 Z M 250 0 " transform="matrix(0.0625,0,0,0.0625,265.625,62.5)"/>
<path style="fill:none;stroke-width:2;stroke-linecap:butt;stroke-linejoin:miter;stroke:rgb(0%,0%,0%);stroke-opacity:1;stroke-miterlimit:10;" d="M 250 0 L 500 500 L 0 500 Z M 250 0 " transform="matrix(0.0625,0,0,0.0625,250,93.75)"/>
<path style="fill:none;stroke-width:2;stroke-linecap:butt;stroke-linejoin:miter;stroke:rgb(0%,0%,0%);stroke-opacity:1;stroke-miterlimit:10;" d="M 250 0 L 500 500 L 0 500 Z M 250 0 " transform="matrix(0.0625,0,0,0.0625,281.25,93.75)"/>
<path style="fill:none;stroke-width:2;stroke-linecap:butt;stroke-linejoin:miter;stroke:rgb(0%,0%,0%);stroke-opacity:1;stroke-miterlimit:10;" d="M 250 0 L 500 500 L 0 500 Z M 250 0 " transform="matrix(0.0625,0,0,0.0625,171.875,125)"/>
<path style="fill:none;stroke-width:2;stroke-linecap:butt;stroke-linejoin:miter;stroke:rgb(0%,0%,0%);stroke-opacity:1;stroke-miterlimit:10;" d="M 250 0 L 500 500 L 0 500 Z M 250 0 " transform="matrix(0.0625,0,0,0.0625,156.25,156.25)"/>
<path style="fill:none;stroke-width:2;stroke-linecap:butt;stroke-linejoin:miter;stroke:rgb(0%,0%,0%);stroke-opacity:1;stroke-miterlimit:10;" d="M 250 0 L 500 500 L 0 500 Z M 250 0 " transform="matrix(0.0625,0,0,0.0625,187.5,156.25)"/>
<path style="fill:none;stroke-width:2;stroke-linecap:butt;stroke-linejoin:miter;stroke:rgb(0%,0%,0%);stroke-opacity:1;stroke-miterlimit:10;" d="M 250 0 L 500 500 L 0 500 Z M 250 0 " transform="matrix(0.0625,0,0,0.0625,140.625,187.5)"/>
<path style="fill:none;stroke-width:2;stroke-linecap:butt;stroke-linejoin:miter;stroke:rgb(0%,0%,0%);stroke-opacity:1;stroke-miterlimit:10;" d="M 250 0 L 500 500 L 0 500 Z M 250 0 " transform="matrix(0.0625,0,0,0.0625,125,218.75)"/>
<path style="fill:none;stroke-width:2;stroke-linecap:butt;stroke-linejoin:miter;stroke:rgb(0%,0%,0%);stroke-opacity:1;stroke-miterlimit:10;" d="M 250 0 L 500 500 L 0 500 Z M 250 0 " transform="matrix(0.0625,0,0,0.0625,156.25,218.75)"/>
<path style="fill:none;stroke-width:2;stroke-linecap:butt;stroke-linejoin:miter;stroke:rgb(0%,0%,0%);stroke-opacity:1;stroke-miterlimit:10;" d="M 250 0 L 500 500 L 0 500 Z M 250 0 " transform="matrix(0.0625,0,0,0.0625,203.125,187.5)"/>
<path style="fill:none;stroke-width:2;stroke-linecap:butt;stroke-linejoin:miter;stroke:rgb(0%,0%,0%);stroke-opacity:1;stroke-miterlimit:10;" d="M 250 0 L 500 500 L 0 500 Z M 250 0 " transform="matrix(0.0625,0,0,0.0625,187.5,218.75)"/>
<path style="fill:none;stroke-width:2;stroke-linecap:butt;stroke-linejoin:miter;stroke:rgb(0%,0%,0%);stroke-opacity:1;stroke-miterlimit:10;" d="M 250 0 L 500 500 L 0 500 Z M 250 0 " transform="matrix(0.0625,0,0,0.0625,218.75,218.75)"/>
<path style="fill:none;stroke-width:2;stroke-linecap:butt;stroke-linejoin:miter;stroke:rgb(0%,0%,0%);stroke-opacity:1;stroke-miterlimit:10;" d="M 250 0 L 500 500 L 0 500 Z M 250 0 " transform="matrix(0.0625,0,0,0.0625,296.875,125)"/>
<path style="fill:none;stroke-width:2;stroke-linecap:butt;stroke-linejoin:miter;stroke:rgb(0%,0%,0%);stroke-opacity:1;stroke-miterlimit:10;" d="M 250 0 L 500 500 L 0 500 Z M 250 0 " transform="matrix(0.0625,0,0,0.0625,281.25,156.25)"/>
<path style="fill:none;stroke-width:2;stroke-linecap:butt;stroke-linejoin:miter;stroke:rgb(0%,0%,0%);stroke-opacity:1;stroke-miterlimit:10;" d="M 250 0 L 500 500 L 0 500 Z M 250 0 " transform="matrix(0.0625,0,0,0.0625,312.5,156.25)"/>
<path style="fill:none;stroke-width:2;stroke-linecap:butt;stroke-linejoin:miter;stroke:rgb(0%,0%,0%);stroke-opacity:1;stroke-miterlimit:10;" d="M 250 0 L 500 500 L 0 500 Z M 250 0 " transform="matrix(0.0625,0,0,0.0625,265.625,187.5)"/>
<path style="fill:none;stroke-width:2;stroke-linecap:butt;stroke-linejoin:miter;stroke:rgb(0%,0%,0%);stroke-opacity:1;stroke-miterlimit:10;" d="M 250 0 L 500 500 L 0 500 Z M 250 0 " transform="matrix(0.0625,0,0,0.0625,250,218.75)"/>
<path style="fill:none;stroke-width:2;stroke-linecap:butt;stroke-linejoin:miter;stroke:rgb(0%,0%,0%);stroke-opacity:1;stroke-miterlimit:10;" d="M 250 0 L 500 500 L 0 500 Z M 250 0 " transform="matrix(0.0625,0,0,0.0625,281.25,218.75)"/>
<path style="fill:none;stroke-width:2;stroke-linecap:butt;stroke-linejoin:miter;stroke:rgb(0%,0%,0%);stroke-opacity:1;stroke-miterlimit:10;" d="M 250 0 L 500 500 L 0 500 Z M 250 0 " transform="matrix(0.0625,0,0,0.0625,328.125,187.5)"/>
<path style="fill:none;stroke-width:2;stroke-linecap:butt;stroke-linejoin:miter;stroke:rgb(0%,0%,0%);stroke-opacity:1;stroke-miterlimit:10;" d="M 250 0 L 500 500 L 0 500 Z M 250 0 " transform="matrix(0.0625,0,0,0.0625,312.5,218.75)"/>
<path style="fill:none;stroke-width:2;stroke-linecap:butt;stroke-linejoin:miter;stroke:rgb(0%,0%,0%);stroke-opacity:1;stroke-miterlimit:10;" d="M 250 0 L 500 500 L 0 500 Z M 250 0 " transform="matrix(0.0625,0,0,0.0625,343.75,218.75)"/>
<path style="fill:none;stroke-width:2;stroke-linecap:butt;stroke-linejoin:miter;stroke:rgb(0%,0%,0%);stroke-opacity:1;stroke-miterlimit:10;" d="M 250 0 L 500 500 L 0 500 Z M 250 0 " transform="matrix(0.0625,0,0,0.0625,109.375,250)"/>
<path style="fill:none;stroke-width:2;stroke-linecap:butt;stroke-linejoin:miter;stroke:rgb(0%,0%,0%);stroke-opacity:1;stroke-miterlimit:10;" d="M 250 0 L 500 500 L 0 500 Z M 250 0 " transform="matrix(0.0625,0,0,0.0625,93.75,281.25)"/>
<path style="fill:none;stroke-width:2;stroke-linecap:butt;stroke-linejoin:miter;stroke:rgb(0%,0%,0%);stroke-opacity:1;stroke-miterlimit:10;" d="M 250 0 L 500 500 L 0 500 Z M 250 0 " transform="matrix(0.0625,0,0,0.0625,125,281.25)"/>
<path style="fill:none;stroke-width:2;stroke-linecap:butt;stroke-linejoin:miter;stroke:rgb(0%,0%,0%);stroke-opacity:1;stroke-miterlimit:10;" d="M 250 0 L 500 500 L 0 500 Z M 250 0 " transform="matrix(0.0625,0,0,0.0625,78.125,312.5)"/>
<path style="fill:none;stroke-width:2;stroke-linecap:butt;stroke-linejoin:miter;stroke:rgb(0%,0%,0%);stroke-opacity:1;stroke-miterlimit:10;" d="M 250 0 L 500 500 L 0 500 Z M 250 0 " transform="matrix(0.0625,0,0,0.0625,62.5,343.75)"/>
<path style="fill:none;stroke-width:2;stroke-linecap:butt;stroke-linejoin:miter;stroke:rgb(0%,0%,0%);stroke-opacity:1;stroke-miterlimit:10;" d="M 250 0 L 500 500 L 0 500 Z M 250 0 " transform="matrix(0.0625,0,0,0.0625,93.75,343.75)"/>
<path style="fill:none;stroke-width:2;stroke-linecap:butt;stroke-linejoin:miter;stroke:rgb(0%,0%,0%);stroke-opacity:1;stroke-miterlimit:10;" d="M 250 0 L 500 500 L 0 500 Z M 250 0 " transform="matrix(0.0625,0,0,0.0625,140.625,312.5)"/>
<path style="fill:none;stroke-width:2;stroke-linecap:butt;stroke-linejoin:miter;stroke:rgb(0%,0%,0%);stroke-opacity:1;stroke-miterlimit:10;" d="M 250 0 L 500 500 L 0 500 Z M 250 0 " transform="matrix(0.0625,0,0,0.0625,125,343.75)"/>
<path style="fill:none;stroke-width:2;stroke-linecap:butt;stroke-linejoin:miter;stroke:rgb(0%,0%,0%);stroke-opacity:1;stroke-miterlimit:10;" d="M 250 0 L 500 500 L 0 500 Z M 250 0 " transform="matrix(0.0625,0,0,0.0625,156.25,343.75)"/>
<path style="fill:none;stroke-width:2;stroke-linecap:butt;stroke-linejoin:miter;stroke:rgb(0%,0%,0%);stroke-opacity:1;stroke-miterlimit:10;" d="M 250 0 L 500 500 L 0 500 Z M 250 0 " transform="matrix(0.0625,0,0,0.0625,46.875,375)"/>
<path style="fill:none;stroke-width:2;stroke-linecap:butt;stroke-linejoin:miter;stroke:rgb(0%,0%,0%);stroke-opacity:1;stroke-miterlimit:10;" d="M 250 0 L 500 500 L 0 500 Z M 250 0 " transform="matrix(0.0625,0,0,0.0625,31.25,406.25)"/>
<path style="fill:none;stroke-width:2;stroke-linecap:butt;stroke-linejoin:miter;stroke:rgb(0%,0%,0%);stroke-opacity:1;stroke-miterlimit:10;" d="M 250 0 L 500 500 L 0 500 Z M 250 0 " transform="matrix(0.0625,0,0,0.0625,62.5,406.25)"/>
<path style="fill:none;stroke-width:2;stroke-linecap:butt;stroke-linejoin:miter;stroke:rgb(0%,0%,0%);stroke-opacity:1;stroke-miterlimit:10;" d="M 250 0 L 500 500 L 0 500 Z M 250 0 " transform="matrix(0.0625,0,0,0.0625,15.625,437.5)"/>
<path style="fill:none;stroke-width:2;stroke-linecap:butt;stroke-linejoin:miter;stroke:rgb(0%,0%,0%);stroke-opacity:1;stroke-miterlimit:10;" d="M 250 0 L 500 500 L 0 500 Z M 250 0 " transform="matrix(0.0625,0,0,0.0625,0,468.75)"/>
<path style="fill:none;stroke-width:2;stroke-linecap:butt;stroke-linejoin:miter;stroke:rgb(0%,0%,0%);stroke-opacity:1;stroke-miterlimit:10;" d="M 250 0 L 500 500 L 0 500 Z M 250 0 " transform="matrix(0.0625,0,0,0.0625,31.25,468.75)"/>
<path style="fill:none;stroke-width:2;stroke-linecap:butt;stroke-linejoin:miter;stroke:rgb(0%,0%,0%);stroke-opacity:1;stroke-miterlimit:10;" d="M 250 0 L 500 500 L 0 500 Z M 250 0 " transform="matrix(0.0625,0,0,0.0625,78.125,437.5)"/>
<path style="fill:none;stroke-width:2;stroke-linecap:butt;stroke-linejoin:miter;stroke:rgb(0%,0%,0%);stroke-opacity:1;stroke-miterlimit:10;" d="M 250 0 L 500 500 L 0 500 Z M 250 0 " transform="matrix(0.0625,0,0,0.0625,62.5,468.75)"/>
<path style="fill:none;stroke-width:2;stroke-linecap:butt;stroke-linejoin:miter;stroke:rgb(0%,0%,0%);stroke-opacity:1;stroke-miterlimit:10;" d="M 250 0 L 500 500 L 0 500 Z M 250 0 " transform="matrix(0.0625,0,0,0.0625,93.75,468.75)"/>
<path style="fill:none;stroke-width:2;stroke-linecap:butt;stroke-linejoin:miter;stroke:rgb(0%,0%,0%);stroke-opacity:1;stroke-miterlimit:10;" d="M 250 0 L 500 500 L 0 500 Z M 250 0 " transform="matrix(0.0625,0,0,0.0625,171.875,375)"/>
<path style="fill:none;stroke-width:2;stroke-linecap:butt;stroke-linejoin:miter;stroke:rgb(0%,0%,0%);stroke-opacity:1;stroke-miterlimit:10;" d="M 250 0 L 500 500 L 0 500 Z M 250 0 " transform="matrix(0.0625,0,0,0.0625,156.25,406.25)"/>
<path style="fill:none;stroke-width:2;stroke-linecap:butt;stroke-linejoin:miter;stroke:rgb(0%,0%,0%);stroke-opacity:1;stroke-miterlimit:10;" d="M 250 0 L 500 500 L 0 500 Z M 250 0 " transform="matrix(0.0625,0,0,0.0625,187.5,406.25)"/>
<path style="fill:none;stroke-width:2;stroke-linecap:butt;stroke-linejoin:miter;stroke:rgb(0%,0%,0%);stroke-opacity:1;stroke-miterlimit:10;" d="M 250 0 L 500 500 L 0 500 Z M 250 0 " transform="matrix(0.0625,0,0,0.0625,140.625,437.5)"/>
<path style="fill:none;stroke-width:2;stroke-linecap:butt;stroke-linejoin:miter;stroke:rgb(0%,0%,0%);stroke-opacity:1;stroke-miterlimit:10;" d="M 250 0 L 500 500 L 0 500 Z M 250 0 " transform="matrix(0.0625,0,0,0.0625,125,468.75)"/>
<path style="fill:none;stroke-width:2;stroke-linecap:butt;stroke-linejoin:miter;stroke:rgb(0%,0%,0%);stroke-opacity:1;stroke-miterlimit:10;" d="M 250 0 L 500 500 L 0 500 Z M 250 0 " transform="matrix(0.0625,0,0,0.0625,156.25,468.75)"/>
<path style="fill:none;stroke-width:2;stroke-linecap:butt;stroke-linejoin:miter;stroke:rgb(0%,0%,0%);stroke-opacity:1;stroke-miterlimit:10;" d="M 250 0 L 500 500 L 0 500 Z M 250 0 " transform="matrix(0.0625,0,0,0.0625,203.125,437.5)"/>
<path style="fill:none;stroke-width:2;stroke-linecap:butt;stroke-linejoin:miter;stroke:rgb(0%,0%,0%);stroke-opacity:1;stroke-miterlimit:10;" d="M 250 0 L 500 500 L 0 500 Z M 250 0 " transform="matrix(0.0625,0,0,0.0625,187.5,468.75)"/>
<path style="fill:none;stroke-width:2;stroke-linecap:butt;stroke-linejoin:miter;stroke:rgb(0%,0%,0%);stroke-opacity:1;stroke-miterlimit:10;" d="M 250 0 L 500 500 L 0 500 Z M 250 0 " transform="matrix(0.0625,0,0,0.0625,218.75,468.75)"/>
<path style="fill:none;stroke-width:2;stroke-linecap:butt;stroke-linejoin:miter;stroke:rgb(0%,0%,0%);stroke-opacity:1;stroke-miterlimit:10;" d="M 250 0 L 500 500 L 0 500 Z M 250 0 " transform="matrix(0.0625,0,0,0.0625,359.375,250)"/>
<path style="fill:none;stroke-width:2;stroke-linecap:butt;stroke-linejoin:miter;stroke:rgb(0%,0%,0%);stroke-opacity:1;stroke-miterlimit:10;" d="M 250 0 L 500 500 L 0 500 Z M 250 0 " transform="matrix(0.0625,0,0,0.0625,343.75,281.25)"/>
<path style="fill:none;stroke-width:2;stroke-linecap:butt;stroke-linejoin:miter;stroke:rgb(0%,0%,0%);stroke-opacity:1;stroke-miterlimit:10;" d="M 250 0 L 500 500 L 0 500 Z M 250 0 " transform="matrix(0.0625,0,0,0.0625,375,281.25)"/>
<path style="fill:none;stroke-width:2;stroke-linecap:butt;stroke-linejoin:miter;stroke:rgb(0%,0%,0%);stroke-opacity:1;stroke-miterlimit:10;" d="M 250 0 L 500 500 L 0 500 Z M 250 0 " transform="matrix(0.0625,0,0,0.0625,328.125,312.5)"/>
<path style="fill:none;stroke-width:2;stroke-linecap:butt;stroke-linejoin:miter;stroke:rgb(0%,0%,0%);stroke-opacity:1;stroke-miterlimit:10;" d="M 250 0 L 500 500 L 0 500 Z M 250 0 " transform="matrix(0.0625,0,0,0.0625,312.5,343.75)"/>
<path style="fill:none;stroke-width:2;stroke-linecap:butt;stroke-linejoin:miter;stroke:rgb(0%,0%,0%);stroke-opacity:1;stroke-miterlimit:10;" d="M 250 0 L 500 500 L 0 500 Z M 250 0 " transform="matrix(0.0625,0,0,0.0625,343.75,343.75)"/>
<path style="fill:none;stroke-width:2;stroke-linecap:butt;stroke-linejoin:miter;stroke:rgb(0%,0%,0%);stroke-opacity:1;stroke-miterlimit:10;" d="M 250 0 L 500 500 L 0 500 Z M 250 0 " transform="matrix(0.0625,0,0,0.0625,390.625,312.5)"/>
<path style="fill:none;stroke-width:2;stroke-linecap:butt;stroke-linejoin:miter;stroke:rgb(0%,0%,0%);stroke-opacity:1;stroke-miterlimit:10;" d="M 250 0 L 500 500 L 0 500 Z M 250 0 " transform="matrix(0.0625,0,0,0.0625,375,343.75)"/>
<path style="fill:none;stroke-width:2;stroke-linecap:butt;stroke-linejoin:miter;stroke:rgb(0%,0%,0%);stroke-opacity:1;stroke-miterlimit:10;" d="M 250 0 L 500 500 L 0 500 Z M 250 0 " transform="matrix(0.0625,0,0,0.0625,406.25,343.75)"/>
<path style="fill:none;stroke-width:2;stroke-linecap:butt;stroke-linejoin:miter;stroke:rgb(0%,0%,0%);stroke-opacity:1;stroke-miterlimit:10;" d="M 250 0 L 500 500 L 0 500 Z M 250 0 " transform="matrix(0.0625,0,0,0.0625,296.875,375)"/>
<path style="fill:none;stroke-width:2;stroke-linecap:butt;stroke-linejoin:miter;stroke:rgb(0%,0%,0%);stroke-opacity:1;stroke-miterlimit:10;" d="M 250 0 L 500 500 L 0 500 Z M 250 0 " transform="matrix(0.0625,0,0,0.0625,281.25,406.25)"/>
<path style="fill:none;stroke-width:2;stroke-linecap:butt;stroke-linejoin:miter;stroke:rgb(0%,0%,0%);stroke-opacity:1;stroke-miterlimit:10;" d="M 250 0 L 500 500 L 0 500 Z M 250 0 " transform="matrix(0.0625,0,0,0.0625,312.5,406.25)"/>
<path style="fill:none;stroke-width:2;stroke-linecap:butt;stroke-linejoin:miter;stroke:rgb(0%,0%,0%);stroke-opacity:1;stroke-miterlimit:10;" d="M 250 0 L 500 500 L 0 500 Z M 250 0 " transform="matrix(0.0625,0,0,0.0625,265.625,437.5)"/>
<path style="fill:none;stroke-width:2;stroke-linecap:butt;stroke-linejoin:miter;stroke:rgb(0%,0%,0%);stroke-opacity:1;stroke-miterlimit:10;" d="M 250 0 L 500 500 L 0 500 Z M 250 0 " transform="matrix(0.0625,0,0,0.0625,250,468.75)"/>
<path style="fill:none;stroke-width:2;stroke-linecap:butt;stroke-linejoin:miter;stroke:rgb(0%,0%,0%);stroke-opacity:1;stroke-miterlimit:10;" d="M 250 0 L 500 500 L 0 500 Z M 250 0 " transform="matrix(0.0625,0,0,0.0625,281.25,468.75)"/>
<path style="fill:none;stroke-width:2;stroke-linecap:butt;stroke-linejoin:miter;stroke:rgb(0%,0%,0%);stroke-opacity:1;stroke-miterlimit:10;" d="M 250 0 L 500 500 L 0 500 Z M 250 0 " transform="matrix(0.0625,0,0,0.0625,328.125,437.5)"/>
<path style="fill:none;stroke-width:2;stroke-linecap:butt;stroke-linejoin:miter;stroke:rgb(0%,0%,0%);stroke-opacity:1;stroke-miterlimit:10;" d="M 250 0 L 500 500 L 0 500 Z M 250 0 " transform="matrix(0.0625,0,0,0.0625,312.5,468.75)"/>
<path style="fill:none;stroke-width:2;stroke-linecap:butt;stroke-linejoin:miter;stroke:rgb(0%,0%,0%);stroke-opacity:1;stroke-miterlimit:10;" d="M 250 0 L 500 500 L 0 500 Z M 250 0 " transform="matrix(0.0625,0,0,0.0625,343.75,468.75)"/>
<path style="fill:none;stroke-width:2;stroke-linecap:butt;stroke-linejoin:miter;stroke:rgb(0%,0%,0%);stroke-opacity:1;stroke-miterlimit:10;" d="M 250 0 L 500 500 L 0 500 Z M 250 0 " transform="matrix(0.0625,0,0,0.0625,421.875,375)"/>
<path style="fill:none;stroke-width:2;stroke-linecap:butt;stroke-linejoin:miter;stroke:rgb(0%,0%,0%);stroke-opacity:1;stroke-miterlimit:10;" d="M 250 0 L 500 500 L 0 500 Z M 250 0 " transform="matrix(0.0625,0,0,0.0625,406.25,406.25)"/>
<path style="fill:none;stroke-width:2;stroke-linecap:butt;stroke-linejoin:miter;stroke:rgb(0%,0%,0%);stroke-opacity:1;stroke-miterlimit:10;" d="M 250 0 L 500 500 L 0 500 Z M 250 0 " transform="matrix(0.0625,0,0,0.0625,437.5,406.25)"/>
<path style="fill:none;stroke-width:2;stroke-linecap:butt;stroke-linejoin:miter;stroke:rgb(0%,0%,0%);stroke-opacity:1;stroke-miterlimit:10;" d="M 250 0 L 500 500 L 0 500 Z M 250 0 " transform="matrix(0.0625,0,0,0.0625,390.625,437.5)"/>
<path style="fill:none;stroke-width:2;stroke-linecap:butt;stroke-linejoin:miter;stroke:rgb(0%,0%,0%);stroke-opacity:1;stroke-miterlimit:10;" d="M 250 0 L 500 500 L 0 500 Z M 250 0 " transform="matrix(0.0625,0,0,0.0625,375,468.75)"/>
<path style="fill:none;stroke-width:2;stroke-linecap:butt;stroke-linejoin:miter;stroke:rgb(0%,0%,0%);stroke-opacity:1;stroke-miterlimit:10;" d="M 250 0 L 500 500 L 0 500 Z M 250 0 " transform="matrix(0.0625,0,0,0.0625,406.25,468.75)"/>
<path style="fill:none;stroke-width:2;stroke-linecap:butt;stroke-linejoin:miter;stroke:rgb(0%,0%,0%);stroke-opacity:1;stroke-miterlimit:10;" d="M 250 0 L 500 500 L 0 500 Z M 250 0 " transform="matrix(0.0625,0,0,0.0625,453.125,437.5)"/>
<path style="fill:none;stroke-width:2;stroke-linecap:butt;stroke-linejoin:miter;stroke:rgb(0%,0%,0%);stroke-opacity:1;stroke-miterlimit:10;" d="M 250 0 L 500 500 L 0 500 Z M 250 0 " transform="matrix(0.0625,0,0,0.0625,437.5,468.75)"/>
<path style="fill:none;stroke-width:2;stroke-linecap:butt;stroke-linejoin:miter;stroke:rgb(0%,0%,0%);stroke-opacity:1;stroke-miterlimit:10;" d="M 250 0 L 500 500 L 0 500 Z M 250 0 " transform="matrix(0.0625,0,0,0.0625,468.75,468.75)"/>
</g>
</svg>
